<?xml version="1.0" encoding="utf-8"?>
<!-- Generator: Adobe Illustrator 25.4.2, SVG Export Plug-In . SVG Version: 6.00 Build 0)  -->
<svg version="1.1" id="Capa_1" xmlns="http://www.w3.org/2000/svg" xmlns:xlink="http://www.w3.org/1999/xlink" x="0px" y="0px"
	 viewBox="0 0 117.7 34.7" style="enable-background:new 0 0 117.7 34.7;" xml:space="preserve">
<style type="text/css">
	.st0{fill:#FFFFFF;}
</style>
<g>
	<g>
		<polygon class="st0" points="21.5,34.7 28.5,34.7 32.2,29.5 35.6,34.7 42.5,34.7 35.6,24.3 51.6,0 44.7,0 32.2,19.1 28.6,13.9 
			21.5,13.9 28.8,24.3 		"/>
	</g>
	<g>
		<path class="st0" d="M17.4,13.9c-1.7,0-3,1.3-3,3v14.8c0,1.7,1.3,3,3,3c1.7,0,3-1.3,3-3V16.9C20.3,15.2,19,13.9,17.4,13.9z"/>
		<path class="st0" d="M114.9,27.4c-0.3,0-1.2,0.3-2.5,1c-1.4,0.6-2.6,1-3.7,1c-1.3,0-2.3-0.3-3.1-0.9c-0.8-0.6-1.3-1.5-1.4-2.6
			h10.7c1.2,0,1.9-0.2,2.3-0.5c0.4-0.4,0.6-1,0.6-1.9c0-2.8-0.9-5.1-2.8-7c-1.9-1.9-4.2-2.9-6.9-2.9c-2.9,0-5.3,1-7.2,3.1
			c-1.9,2-2.9,4.6-2.9,7.6c0,3,1,5.6,3,7.6c2,2,4.4,3,7.4,3c2.4,0,4.5-0.5,6.3-1.5c1.8-1,2.7-2.2,2.7-3.5c0-0.7-0.2-1.2-0.7-1.7
			C116.2,27.6,115.6,27.4,114.9,27.4z M105.4,19.3c0.7-0.6,1.6-1,2.6-1c1,0,1.9,0.3,2.6,1c0.7,0.7,1.1,1.5,1.2,2.5H104
			C104.2,20.8,104.7,19.9,105.4,19.3z"/>
		<path class="st0" d="M95.8,13.9h-1.4v-3.7c0-1.7-1.3-3-3-3c-1.7,0-3,1.3-3,3v3.7h-1.4c-1.5,0-2.6,1.2-2.6,2.6s1.2,2.6,2.6,2.6h1.4
			v12.5c0,1.7,1.3,3,3,3c1.7,0,3-1.3,3-3V19.2h1.4c1.5,0,2.6-1.2,2.6-2.6S97.3,13.9,95.8,13.9z"/>
		<path class="st0" d="M10.3,5.2C5.4,5,2.8,8.1,2.7,13.9h0c-1.5,0-2.6,1.2-2.6,2.6s1.2,2.6,2.6,2.6h0v12.6c0,1.6,1.3,3,3,3
			s3-1.3,3-3V19.2h1c1.5,0,2.6-1.2,2.6-2.6s-1.2-2.6-2.6-2.6h-1c0-2.1,0.4-2.7,1.6-2.7c1.6,0,3-1.3,3-3S11.9,5.3,10.3,5.2z"/>
		<path class="st0" d="M58.9,5.2c-1.7,0-3,1.3-3,3v6.7l0,0.3c-0.7-0.6-1.5-1.1-2.2-1.3c-0.8-0.3-1.6-0.4-2.5-0.4
			c-2.6,0-4.7,1-6.6,3.1c-1.8,2-2.7,4.5-2.7,7.5c0,3,0.9,5.5,2.7,7.6c1.8,2.1,4,3.1,6.5,3.1c1,0,1.9-0.2,2.7-0.5
			c0.8-0.3,1.6-1,2.2-1.6c0.4,1.2,1.5,2.1,2.8,2.1c1.7,0,3-1.3,3-3l0-23.5C61.9,6.6,60.6,5.2,58.9,5.2z M55.9,24.6
			c-0.1,1.3-0.4,2.3-1.1,3.2c-0.7,0.9-1.7,1.4-2.8,1.4c-1.2,0-2.1-0.5-2.8-1.4c-0.7-0.9-1.1-2.1-1.1-3.6c0-1.5,0.4-2.7,1.1-3.7
			c0.7-0.9,1.7-1.4,2.9-1.4c1.2,0,2.1,0.5,2.8,1.4c0.6,0.8,1,1.9,1.1,3.2V24.6z"/>
		<path class="st0" d="M82.1,14.4c-0.5-0.3-1.1-0.5-1.7-0.5c-1.2,0-2.3,0.8-2.8,1.8c-0.6-0.8-1.4-1.5-2.2-1.8
			c-0.8-0.3-1.7-0.5-2.7-0.5c-2.6,0-4.8,1-6.6,3.1c-1.8,2-2.7,4.6-2.7,7.6c0,3,0.9,5.6,2.6,7.6c1.8,2,3.9,3,6.5,3c1,0,2-0.2,2.8-0.6
			c0.9-0.4,1.6-1,2.2-1.7c0.3,1.3,1.5,2.3,2.9,2.3c1.5,0,2.8-1.1,3-2.6c0-0.2,0.1-0.4,0.1-0.6V16.9C83.4,15.9,82.9,15,82.1,14.4z
			 M76.2,27.5c-0.7,0.9-1.6,1.4-2.8,1.4c-1.2,0-2.1-0.5-2.8-1.4c-0.7-0.9-1.1-2.1-1.1-3.6c0-1.4,0.4-2.6,1.1-3.5
			c0.7-0.9,1.7-1.3,2.8-1.3c1.1,0,2,0.4,2.8,1.3c0.7,0.9,1.1,2,1.1,3.5C77.3,25.4,77,26.6,76.2,27.5z"/>
	</g>
</g>
</svg>
