<svg xmlns="http://www.w3.org/2000/svg" viewBox="0 0 111 121" width="111" height="121" preserveAspectRatio="xMidYMid meet"><defs><clippath id="__lottie_element_35"><rect width="111" height="121" x="0" y="0"></rect></clippath></defs><g clip-path="url(#__lottie_element_35)"><g transform="matrix(1,0,0,1,0,0)" opacity="0.1899999999966795" style="display: none;"><g opacity="1" transform="matrix(1,0,0,1,93.38200378417969,28.083999633789062)"><path stroke-linecap="butt" stroke-linejoin="miter" fill-opacity="0" stroke-miterlimit="10" stroke="rgb(213,139,116)" stroke-opacity="1" stroke-width="3" d=" M9.42300033569336,-1.8270000219345093 C4.723999977111816,-3.5840001106262207 2.6679999828338623,-8.164999961853027 1.8609999418258667,-10.739999771118164 C1.6059999465942383,-11.557000160217285 0.8579999804496765,-12.104999542236328 0,-12.104999542236328 C-0.8569999933242798,-12.104999542236328 -1.6059999465942383,-11.557000160217285 -1.8619999885559082,-10.739999771118164 C-2.6689999103546143,-8.164999961853027 -4.7230000495910645,-3.5840001106262207 -9.42300033569336,-1.8270000219345093 C-10.1899995803833,-1.5399999618530273 -10.6850004196167,-0.8240000009536743 -10.685999870300293,-0.0010000000474974513 C-10.685999870300293,0.8209999799728394 -10.1899995803833,1.5390000343322754 -9.42300033569336,1.8259999752044678 C-4.7230000495910645,3.5829999446868896 -2.6689999103546143,8.163000106811523 -1.8619999885559082,10.73799991607666 C-1.6059999465942383,11.555000305175781 -0.8569999933242798,12.104999542236328 0,12.104999542236328 C0.8579999804496765,12.104999542236328 1.6059999465942383,11.555000305175781 1.8609999418258667,10.73799991607666 C2.6679999828338623,8.163000106811523 4.723999977111816,3.5829999446868896 9.42300033569336,1.8259999752044678 C10.190999984741211,1.5390000343322754 10.685999870300293,0.8209999799728394 10.685999870300293,-0.0010000000474974513 C10.685999870300293,-0.8240000009536743 10.1899995803833,-1.5399999618530273 9.42300033569336,-1.8270000219345093z"></path></g></g><g transform="matrix(1,0,0,1,0,0)" opacity="0.2750000000001549" style="display: none;"><g opacity="1" transform="matrix(1,0,0,1,70.65299987792969,39.2599983215332)"><path stroke-linecap="butt" stroke-linejoin="miter" fill-opacity="0" stroke-miterlimit="10" stroke="rgb(213,139,116)" stroke-opacity="1" stroke-width="3" d=" M-7.0229997634887695,1.6990000009536743 C-3.744999885559082,2.924999952316284 -2.299999952316284,6.151000022888184 -1.7330000400543213,7.965000152587891 C-1.49399995803833,8.72599983215332 -0.7979999780654907,9.236000061035156 -0.0010000000474974513,9.236000061035156 C0.796999990940094,9.236000061035156 1.4930000305175781,8.72599983215332 1.7319999933242798,7.965000152587891 C2.2990000247955322,6.151000022888184 3.743000030517578,2.9260001182556152 7.0229997634887695,1.6990000009536743 C7.736999988555908,1.4320000410079956 8.199000358581543,0.7649999856948853 8.199999809265137,0.0010000000474974513 C8.199999809265137,-0.7639999985694885 7.736999988555908,-1.430999994277954 7.0229997634887695,-1.6990000009536743 C3.743000030517578,-2.924999952316284 2.299999952316284,-6.151000022888184 1.7319999933242798,-7.965000152587891 C1.4930000305175781,-8.725000381469727 0.796999990940094,-9.236000061035156 -0.0010000000474974513,-9.236000061035156 C-0.7979999780654907,-9.236000061035156 -1.49399995803833,-8.725000381469727 -1.7330000400543213,-7.965000152587891 C-2.3010001182556152,-6.151000022888184 -3.74399995803833,-2.9260001182556152 -7.0229997634887695,-1.6990000009536743 C-7.736999988555908,-1.4320000410079956 -8.199999809265137,-0.7639999985694885 -8.199999809265137,0.0010000000474974513 C-8.199000358581543,0.7649999856948853 -7.736999988555908,1.4320000410079956 -7.0229997634887695,1.6990000009536743z"></path></g></g><g transform="matrix(1,0,0,1,0,0)" opacity="1" style="display: block;"><g opacity="1" transform="matrix(1,0,0,1,29.084999084472656,88.52799987792969)"><path stroke-linecap="butt" stroke-linejoin="miter" fill-opacity="0" stroke-miterlimit="10" stroke="rgb(213,139,116)" stroke-opacity="1" stroke-width="3" d=" M9.42300033569336,-1.8270000219345093 C4.723999977111816,-3.5840001106262207 2.6689999103546143,-8.164999961853027 1.8619999885559082,-10.739999771118164 C1.6069999933242798,-11.557000160217285 0.8579999804496765,-12.104999542236328 0.0010000000474974513,-12.104999542236328 C0.0010000000474974513,-12.104999542236328 0,-12.104999542236328 0,-12.104999542236328 C-0.8569999933242798,-12.104999542236328 -1.6050000190734863,-11.557000160217285 -1.8619999885559082,-10.739999771118164 C-2.6679999828338623,-8.164999961853027 -4.7230000495910645,-3.5840001106262207 -9.42199993133545,-1.8270000219345093 C-10.189000129699707,-1.5399999618530273 -10.6850004196167,-0.8230000138282776 -10.6850004196167,-0.0010000000474974513 C-10.685999870300293,0.8209999799728394 -10.1899995803833,1.5390000343322754 -9.42199993133545,1.8259999752044678 C-4.7230000495910645,3.5829999446868896 -2.6679999828338623,8.163999557495117 -1.8619999885559082,10.73799991607666 C-1.6050000190734863,11.557000160217285 -0.8569999933242798,12.104999542236328 0.0010000000474974513,12.104999542236328 C0.8579999804496765,12.104999542236328 1.6069999933242798,11.557000160217285 1.8619999885559082,10.73799991607666 C2.6689999103546143,8.163999557495117 4.723999977111816,3.5829999446868896 9.42300033569336,1.8259999752044678 C10.190999984741211,1.5390000343322754 10.685999870300293,0.8209999799728394 10.685999870300293,-0.0010000000474974513 C10.685999870300293,-0.8230000138282776 10.1899995803833,-1.5399999618530273 9.42300033569336,-1.8270000219345093z"></path></g></g><g transform="matrix(0.999855637550354,0.016991794109344482,-0.016991794109344482,0.999855637550354,1.0322456359863281,-0.9993743896484375)" opacity="1" style="display: block;"><g opacity="1" transform="matrix(1,0,0,1,70.74500274658203,90.83399963378906)"><path stroke-linecap="butt" stroke-linejoin="miter" fill-opacity="0" stroke-miterlimit="10" stroke="rgb(213,139,116)" stroke-opacity="1" stroke-width="3" d=" M31.590999603271484,-22.299999237060547 C31.08099937438965,-22.95800018310547 30.31399917602539,-23.375999450683594 29.485000610351562,-23.44700050354004 C29.485000610351562,-23.44700050354004 -6.922999858856201,-26.565000534057617 -6.922999858856201,-26.565000534057617 C-8.458999633789062,-26.695999145507812 -9.866000175476074,-25.608999252319336 -10.123000144958496,-24.08799934387207 C-10.305999755859375,-23.007999420166016 -10.48900032043457,-21.929000854492188 -10.67199993133545,-20.849000930786133 C-11.27299976348877,-17.299999237060547 -15.305999755859375,6.492000102996826 -15.378000259399414,6.915999889373779 C-15.522000312805176,7.77400016784668 -16.0049991607666,7.5229997634887695 -16.82200050354004,7.428999900817871 C-17.375999450683594,7.366000175476074 -17.934999465942383,7.335999965667725 -18.493000030517578,7.341000080108643 C-19.63599967956543,7.35099983215332 -20.775999069213867,7.499000072479248 -21.884000778198242,7.776000022888184 C-28.204999923706055,9.35099983215332 -32.31399917602539,14.779000282287598 -31.04400062561035,19.874000549316406 C-30.41200065612793,22.409000396728516 -28.584999084472656,24.461999893188477 -25.899999618530273,25.65399932861328 C-24.340999603271484,26.34600067138672 -22.597000122070312,26.695999145507812 -20.795000076293945,26.695999145507812 C-19.63599967956543,26.695999145507812 -18.45199966430664,26.551000595092773 -17.277999877929688,26.257999420166016 C-14.651000022888184,25.60300064086914 -12.166000366210938,24.211999893188477 -10.366999626159668,22.17099952697754 C-8.571000099182129,20.131999969482422 -8.074000358581543,17.84600067138672 -7.633999824523926,15.24899959564209 C-7.46999979019165,14.279999732971191 -2.9049999713897705,-12.638999938964844 -2.815000057220459,-13.086999893188477 C-2.683000087738037,-13.73799991607666 -2.315000057220459,-13.637999534606934 -1.7410000562667847,-13.59000015258789 C-0.9399999976158142,-13.520999908447266 20.53499984741211,-11.680999755859375 21.159000396728516,-11.628999710083008 C21.360000610351562,-11.611000061035156 21.606000900268555,-11.548999786376953 21.562999725341797,-11.295000076293945 C21.361000061035156,-10.10099983215332 18.54199981689453,6.616000175476074 18.493000030517578,6.817999839782715 C18.327999114990234,7.491000175476074 17.466999053955078,7.072999954223633 16.986000061035156,7.020999908447266 C16.44700050354004,6.9629998207092285 15.904999732971191,6.939000129699707 15.36400032043457,6.946000099182129 C14.23799991607666,6.958000183105469 13.114999771118164,7.10699987411499 12.02299976348877,7.379000186920166 C9.024999618530273,8.12600040435791 6.421999931335449,9.751999855041504 4.693999767303467,11.958999633789062 C2.88100004196167,14.272000312805176 2.2320001125335693,16.941999435424805 2.86299991607666,19.476999282836914 C3.8970000743865967,23.625 8.180999755859375,26.29400062561035 13.14799976348877,26.29400062561035 C14.281999588012695,26.29400062561035 15.45300006866455,26.155000686645508 16.628999710083008,25.86199951171875 C20.96299934387207,24.781999588012695 24.437000274658203,21.816999435424805 25.601999282836914,18.243999481201172 C25.929000854492188,17.238000869750977 27.99500008392334,5.090000152587891 29.69300079345703,-5.059999942779541"></path></g></g><g transform="matrix(1,0,0,1,0,0)" opacity="1" style="display: block;"><g opacity="1" transform="matrix(1,0,0,1,31.030000686645508,44.19499969482422)"><path stroke-linecap="butt" stroke-linejoin="miter" fill-opacity="0" stroke-miterlimit="10" stroke="rgb(213,139,116)" stroke-opacity="1" stroke-width="3" d=" M27.599000930786133,5.492000102996826 C27.1200008392334,2.4719998836517334 22.238000869750977,-28.26300048828125 22.007999420166016,-29.711999893188477 C21.87700080871582,-30.534000396728516 21.405000686645508,-31.268999099731445 20.711999893188477,-31.729999542236328 C20.018999099731445,-32.191001892089844 19.158000946044922,-32.34299850463867 18.349000930786133,-32.14500045776367 C18.349000930786133,-32.14500045776367 -17.14900016784668,-23.475000381469727 -17.14900016784668,-23.475000381469727 C-18.64699935913086,-23.110000610351562 -19.631000518798828,-21.628999710083008 -19.389999389648438,-20.104999542236328 C-19.368999481201172,-19.972000122070312 -14.508999824523926,10.689000129699707 -14.468999862670898,10.958999633789062 C-14.340999603271484,11.831999778747559 -15.005000114440918,11.755999565124512 -15.701000213623047,11.906999588012695 C-16.236000061035156,12.022000312805176 -16.763999938964844,12.170999526977539 -17.281999588012695,12.350000381469727 C-18.363000869750977,12.722999572753906 -19.398000717163086,13.229000091552734 -20.361000061035156,13.845999717712402 C-25.847999572753906,17.35700035095215 -28.009000778198242,23.812000274658203 -25.179000854492188,28.236000061035156 C-23.770000457763672,30.437000274658203 -21.382999420166016,31.79800033569336 -18.45800018310547,32.07099914550781 C-15.529000282287598,32.34299850463867 -12.557999610900879,31.466999053955078 -10.095000267028809,29.889999389648438 C-7.574999809265137,28.277999877929688 -5.494999885559082,25.856000900268555 -4.545000076293945,22.9950008392334 C-4.301000118255615,22.261999130249023 -4.135000228881836,21.50200080871582 -4.065000057220459,20.73200035095215 C-4.000999927520752,20.045000076293945 -4.021999835968018,19.363000869750977 -4.1020002365112305,18.68000030517578 C-4.197999954223633,17.849000930786133 -8.89799976348877,-11.564000129699707 -8.970999717712402,-12.032999992370605 C-9.045000076293945,-12.496000289916992 -9.017000198364258,-12.609000205993652 -8.54699993133545,-12.722999572753906 C-7.409999847412109,-13.00100040435791 13.897000312805176,-18.204999923706055 14.093999862670898,-18.253000259399414 C14.510000228881836,-18.354999542236328 14.697999954223633,-18.25200080871582 14.765999794006348,-17.823999404907227 C15.29699993133545,-14.468999862670898 17.434999465942383,-0.9729999899864197 17.5310001373291,-0.367000013589859 C17.69700050354004,0.6800000071525574 17.099000930786133,0.5299999713897705 16.27199935913086,0.7110000252723694 C15.722000122070312,0.8309999704360962 15.178999900817871,0.9869999885559082 14.647000312805176,1.1740000247955322 C13.593999862670898,1.5449999570846558 12.585000038146973,2.0420000553131104 11.644000053405762,2.6429998874664307 C6.5329999923706055,5.914000034332275 4.311999797821045,11.73799991607666 6.321000099182129,16.09600067138672 C6.321000099182129,16.09600067138672 6.639999866485596,16.929000854492188 7.468999862670898,17.891000747680664 C7.502999782562256,17.930999755859375 7.538000106811523,17.969999313354492 7.572999954223633,18.010000228881836 C9.14900016784668,19.784000396728516 12.17300033569336,21.983999252319336 16.885000228881836,20.68000030517578 C18.625,20.354000091552734 20.344999313354492,19.68899917602539 21.910999298095703,18.687000274658203 C24.172000885009766,17.240999221801758 26.069000244140625,15.154000282287598 27.128000259399414,12.673999786376953 C27.614999771118164,11.53600025177002 27.923999786376953,10.315999984741211 27.965999603271484,9.076000213623047 C28.009000778198242,7.815999984741211 27.79599952697754,6.736000061035156 27.599000930786133,5.492000102996826z"></path></g></g></g></svg>
